<svg height="512pt" viewBox="-14 0 512 512.00131" width="512pt" xmlns="http://www.w3.org/2000/svg"><path d="m342.851562 279.738281c-4.367187 5.140625-11.105468 8.589844-18.832031 8.976563l-116.726562 5.722656-7.820313-17.703125-11.441406-25.9375c2.667969-1.039063 5.589844-1.679687 8.664062-1.832031l124.5625-6.109375c14.027344-.679688 26.03125 9.019531 26.792969 21.683593.347657 5.691407-1.636719 11.015626-5.199219 15.199219zm0 0" fill="#ffc48f"/><path d="m342.851562 279.738281c-4.367187 5.140625-11.105468 8.589844-18.832031 8.976563l-116.726562 5.722656-7.820313-17.703125 121.785156-5.976563c8.714844-.425781 16.65625 3.15625 21.59375 8.980469zm0 0" fill="#e59a5c"/><path d="m71.855469 314.140625v187.445313c3.429687 1.738281 7.308593 2.707031 11.410156 2.707031 14.058594 0 25.449219-11.390625 25.449219-25.449219v-162.390625" fill="#3b3d4c"/><path d="m113.25 216.960938v78.085937h-105.609375v-78.085937c0-29.164063 23.644531-52.808594 52.808594-52.808594 29.164062 0 52.800781 23.644531 52.800781 52.808594zm0 0" fill="#e3f4fc"/><path d="m132.757812 62.742188c12.800782 13.503906 19.402344 32.597656 16.25 52.394531-5.375 33.808593-37.132812 56.851562-70.941406 51.472656-33.796875-5.375-56.839844-37.132813-51.460937-70.941406l6.917969-43.507813 44.519531-24.71875zm0 0" fill="#ffc48f"/><path d="m91.980469 167.257812c-4.554688.304688-9.210938.101563-13.914063-.644531-33.796875-5.375-56.835937-37.136719-51.460937-70.941406l6.921875-43.507813 44.519531-24.722656 16.265625 10.492188-33.449219 18.578125-6.921875 43.507812c-4.628906 29.109375 11.804688 56.691407 38.039063 67.238281zm0 0" fill="#e59a5c"/><path d="m33.527344 52.160156-6.921875 43.511719c17.226562 2.738281 33.417969-9.003906 36.15625-26.234375l2.503906-15.746094 79.796875 12.691406c1.121094.179688 2.242188.320313 3.355469.421876 31.386719 2.839843 36.804687-43.988282 5.679687-48.9375l-60.121094-9.566407c-28.804687-4.578125-55.867187 15.058594-60.449218 43.859375zm0 0" fill="#f78e39"/><path d="m127.929688 13.699219c-27.652344-4.398438-53.707032 13.527343-59.792969 40.449219l-2.867188-.457032-2.503906 15.742188c-1.371094 8.621094-6.105469 15.855468-12.648437 20.605468-6.542969 4.75-14.890626 7.003907-23.511719 5.632813l6.921875-43.507813c4.582031-28.804687 31.648437-48.445312 60.453125-43.863281zm0 0" fill="#e27727"/><path d="m113.25 295.046875c0 14.578125-5.914062 27.789063-15.460938 37.335937-3.511718 3.511719-7.511718 6.527344-11.890624 8.9375v137.523438c0 14.058594-11.390626 25.449219-25.449219 25.449219-14.054688 0-25.445313-11.390625-25.445313-25.449219v-137.511719c-16.308594-8.988281-27.363281-26.34375-27.363281-46.285156zm0 0" fill="#5c5e70"/><path d="m69.5 164.925781c-24.859375 4.285157-43.769531 25.957031-43.769531 52.035157v78.085937h-18.089844v-78.085937c0-29.164063 23.644531-52.808594 52.808594-52.808594 3.085937 0 6.117187.261718 9.050781.773437zm0 0" fill="#bdd9e5"/><path d="m69.5 502.632812c-2.808594 1.070313-5.863281 1.660157-9.050781 1.660157-14.054688 0-25.445313-11.390625-25.445313-25.449219v-137.511719c-16.308594-8.988281-27.363281-26.34375-27.363281-46.285156h18.089844c0 19.941406 11.054687 37.296875 27.359375 46.285156v137.511719c0 10.871094 6.820312 20.15625 16.410156 23.789062zm0 0" fill="#3b3d4c"/><path d="m328.019531 373.121094h-53.269531l-24.96875 63.050781c-3.519531 8.882813-12.03125 14.292969-21.03125 14.292969-2.777344 0-5.59375-.507813-8.324219-1.589844-11.617187-4.597656-17.296875-17.742188-12.699219-29.355469l29.632813-74.839843c2.90625-7.320313 9.402344-12.605469 17.152344-13.953126l49.863281-8.683593" fill="#34abe0"/><path d="m223.058594 449.722656c1.886718.507813 3.796875.742188 5.6875.742188 9.003906 0 17.515625-5.40625 21.035156-14.292969l24.964844-63.050781c-6.894532 0-13.089844 4.210937-15.632813 10.621094l-20.761719 52.429687c-2.753906 6.957031-8.574218 11.789063-15.292968 13.550781zm0 0" fill="#1895b7"/><path d="m298.910156 327.363281v-44.859375c0-17.28125 7.003906-32.921875 18.328125-44.246094 11.324219-11.328124 26.96875-18.328124 44.246094-18.328124 34.554687 0 62.574219 28.015624 62.574219 62.574218v35.171875" fill="#f75772"/><path d="m347.191406 221.566406c27.671875 6.46875 48.289063 31.292969 48.289063 60.9375v37.386719l28.578125-2.214844v-35.171875c0-34.558594-28.015625-62.574218-62.574219-62.574218-4.921875 0-9.707031.570312-14.292969 1.636718zm0 0" fill="#e0244c"/><path d="m383.371094 82.496094 40.082031 31.40625v44.054687c0 34.230469-27.742187 61.976563-61.96875 61.976563-34.230469 0-61.976563-27.742188-61.976563-61.976563 0-20.046875 9.519532-37.867187 24.28125-49.191406zm0 0" fill="#ffc48f"/><path d="m347.644531 218.390625c4.449219 1.011719 9.082031 1.546875 13.839844 1.546875 34.222656 0 61.96875-27.742188 61.96875-61.976562v-44.054688l-40.085937-31.410156-17.710938 7.808594 30.113281 23.601562v44.054688c0 29.472656-20.5625 54.132812-48.125 60.429687zm0 0" fill="#e59a5c"/><path d="m477.210938 401.257812c0 56.945313-46.160157 103.109376-103.105469 103.109376-56.949219 0-103.109375-46.164063-103.109375-103.109376 0-56.945312 46.160156-103.109374 103.109375-103.109374 56.945312 0 103.105469 46.164062 103.105469 103.109374zm0 0" fill="#3b3d4c"/><path d="m451.070312 401.257812c0 42.507813-34.457031 76.964844-76.964843 76.964844-42.511719 0-76.96875-34.457031-76.96875-76.964844 0-42.507812 34.457031-76.96875 76.96875-76.96875 42.507812 0 76.964843 34.460938 76.964843 76.96875zm0 0" fill="#e6e6e6"/><path d="m423.453125 113.902344v44.058594c-17.445313 0-31.585937-14.140626-31.585937-31.585938v-15.945312h-55.351563c-27.25 0-49.335937-22.085938-49.335937-49.335938h83.464843c29.164063 0 52.808594 23.644531 52.808594 52.808594zm0 0" fill="#5c5e70"/><path d="m336.265625 61.09375c27.996094 0 50.914063 21.792969 52.695313 49.339844h2.902343v15.9375c0 8.730468 3.539063 16.617187 9.253907 22.335937 5.71875 5.71875 13.605468 9.253907 22.335937 9.253907v-44.054688c0-29.167969-23.648437-52.8125-52.8125-52.8125zm0 0" fill="#3b3d4c"/><path d="m378.824219 282.503906v46.585938l-23.605469 23.609375c-8.835938 8.832031-8.835938 23.152343 0 31.980469 4.414062 4.417968 10.203125 6.625 15.988281 6.625 5.789063 0 11.578125-2.207032 15.992188-6.625l30.234375-30.230469c4.242187-4.242188 6.625-9.996094 6.625-15.992188v-55.953125" fill="#ffc48f"/><path d="m359.910156 388.28125c3.484375 2.019531 7.390625 3.023438 11.300782 3.023438 5.789062 0 11.578124-2.207032 15.992187-6.625l30.234375-30.230469c4.242188-4.242188 6.621094-9.996094 6.621094-15.992188v-55.953125h-22.597656v55.953125c0 5.996094-2.378907 11.75-6.625 15.992188l-30.230469 30.230469c-1.4375 1.441406-3.019531 2.644531-4.695313 3.601562zm0 0" fill="#e59a5c"/><path d="m275.757812 477.417969c0 14.882812-12.066406 26.949219-26.953124 26.949219-14.882813 0-26.949219-12.066407-26.949219-26.949219 0-14.886719 12.066406-26.953125 26.949219-26.953125 14.886718 0 26.953124 12.066406 26.953124 26.953125zm0 0" fill="#3b3d4c"/><path d="m177.089844 297.265625c-35.800782 0-78.308594-7.992187-110.792969-38.285156-7.15625-6.675781-12.8125-13.527344-17.273437-19.949219-9.945313-14.34375-2.59375-34.203125 14.292968-38.589844.242188-.074218.488282-.132812.722656-.195312 10.097657-2.625 20.828126 1.210937 26.78125 9.78125 2.933594 4.214844 6.871094 8.886718 12.09375 13.4375 17.671876 15.402344 42.570313 23.097656 74.175782 22.957031 5.976562-.03125 7.992187 50.84375 0 50.84375zm0 0" fill="#e3f4fc"/><path d="m181.804688 285.742188c-.734376 6.6875-2.25 11.523437-4.714844 11.523437-35.800782 0-78.308594-7.992187-110.792969-38.285156-7.15625-6.675781-12.8125-13.527344-17.273437-19.949219l8.632812-8.632812c4.113281 5.566406 9.121094 11.378906 15.21875 17.070312 31.921875 29.765625 73.523438 38 108.929688 38.273438zm0 0" fill="#bdd9e5"/><path d="m199.859375 296.226562c-7.132813.632813-14.777344 1.039063-22.769531 1.039063v-50.84375c5.976562-.03125 12.207031-.335937 18.667968-.929687 14.179688-1.292969 26.691407 9.296874 27.699219 23.566406.988281 13.894531-9.710937 25.925781-23.597656 27.167968zm0 0" fill="#ffc48f"/><path d="m199.859375 296.226562c-7.132813.632813-14.777344 1.039063-22.769531 1.039063v-11.675781c7.992187 0 15.636718-.40625 22.769531-1.039063 11.820313-1.058593 21.328125-6.878906 23.28125-18.066406.152344.84375.253906 1.699219.316406 2.574219.988281 13.894531-9.710937 25.925781-23.597656 27.167968zm0 0" fill="#e59a5c"/><path d="m98.613281 104.5c.40625.0625.808594.09375 1.207031.09375 3.6875 0 6.933594-2.679688 7.53125-6.433594l2.269532-14.261718c.660156-4.164063-2.179688-8.078126-6.34375-8.738282-4.160156-.664062-8.074219 2.175782-8.738282 6.339844l-2.269531 14.261719c-.660156 4.160156 2.179688 8.074219 6.34375 8.738281zm0 0"/><path d="m123.566406 108.46875c.40625.0625.808594.09375 1.210938.09375 3.6875 0 6.933594-2.679688 7.527344-6.433594l2.269531-14.261718c.664062-4.164063-2.175781-8.078126-6.339844-8.738282-4.164063-.664062-8.078125 2.175782-8.738281 6.339844l-2.269532 14.261719c-.660156 4.164062 2.175782 8.074219 6.339844 8.738281zm0 0"/><path d="m431.691406 306.660156v-24.15625c0-27.308594-15.679687-51.003906-38.496094-62.609375 22.472657-11.554687 37.894532-34.972656 37.894532-61.9375 0-.007812-.003906-.019531-.003906-.027343v-44.023438c0-33.332031-27.113282-60.445312-60.441407-60.445312h-83.464843c-4.21875 0-7.636719 3.417968-7.636719 7.632812 0 21.746094 12.25 40.675781 30.207031 50.273438-11.472656 12.675781-17.875 29.089843-17.875 46.589843 0 26.949219 15.402344 50.351563 37.855469 61.914063-6.527344 3.316406-12.566407 7.664062-17.890625 12.988281-.957032.960937-1.878906 1.949219-2.773438 2.953125l-20.265625.988281c-4.214843.207031-7.460937 3.789063-7.253906 8 .199219 4.082031 3.574219 7.261719 7.617187 7.261719.128907 0 .253907-.003906.378907-.011719l8.871093-.429687c-4.660156 9.492187-7.136718 19.996094-7.136718 30.882812v.175782l-63.820313 3.128906c2.703125-5.1875 4.054688-11.117188 3.617188-17.289063-.335938-4.78125-1.675781-9.324219-3.882813-13.410156l31.859375-1.5625c4.210938-.203125 7.460938-3.785156 7.253907-7.996094-.207032-4.210937-3.800782-7.449219-8-7.253906l-46.800782 2.296875c-5.097656-2.273438-10.714844-3.222656-16.433594-2.699219-30.675781 2.796875-55.539062-.972656-74.1875-11.195312v-9.734375c0-17.066406-7.121093-32.496094-18.535156-43.496094 27.300782-5.871094 49.5625-27.945312 54.203125-57.132812 2.296875-14.433594-.019531-28.984376-6.367187-41.792969 18.699218.476562 30.238281-13.457031 32.066406-28.105469 1.929688-15.503906-6.707031-32.886719-26.949219-36.109375l-60.125-9.5625c-15.945312-2.539063-31.925781 1.285156-44.992187 10.769531-13.066406 9.480469-21.660156 23.480469-24.195313 39.425782l-6.921875 43.511718v.003906.003907c-3.992187 25.128906 6.070313 49.296875 24.339844 64.5-25.054688 7.375-43.40625 30.570312-43.40625 57.980469v78.085937c0 20.488281 10.378906 39.476563 27.363281 50.597656v133.199219c0 18.242188 14.839844 33.082031 33.082031 33.082031 4.007813 0 7.855469-.71875 11.414063-2.03125 3.628906 1.335938 7.511719 2.03125 11.40625 2.03125 18.242187 0 33.085937-14.839843 33.085937-33.082031v-60.105469c0-4.21875-3.417968-7.636719-7.636718-7.636719-4.214844 0-7.632813 3.417969-7.632813 7.636719v60.105469c0 7.863281-5.128906 14.539062-12.210937 16.898438 2.953125-4.949219 4.65625-10.726563 4.65625-16.898438v-133.210938c2.667968-1.75 5.191406-3.707031 7.554687-5.855468v48.421875c0 4.214843 3.417969 7.632812 7.632813 7.632812s7.632812-3.417969 7.632812-7.632812v-70.113281c2.652344-6.441407 4.171875-13.347657 4.46875-20.472657 17.046875 4.839844 35.828125 7.28125 56.273438 7.28125 7.644531 0 15.53125-.355469 23.445312-1.0625 2.902344-.257812 5.691406-.886719 8.320313-1.828125l82.417969-4.035156v18.609375l-38.074219 6.628906c-10.292969 1.789063-19.082031 8.9375-22.941407 18.660157l-29.636718 74.84375c-2.972656 7.511718-2.84375 15.734374.363281 23.148437.445313 1.027344.945313 2.015625 1.488281 2.972656h-10.726562c-4.21875 0-7.636719 3.417969-7.636719 7.636719 0 4.214844 3.417969 7.632812 7.636719 7.632812h28.382812c-3.730468 5.519532-5.910156 12.167969-5.910156 19.316407 0 19.070312 15.515625 34.582031 34.585938 34.582031 19.070312 0 34.582031-15.511719 34.582031-34.582031 0-7.148438-2.175781-13.796875-5.90625-19.316407h1.617187c19.375 32.261719 54.710938 53.898438 95.003906 53.898438 61.066407 0 110.746094-49.679688 110.746094-110.746094 0-38.710937-20.257812-74.539062-53.15625-94.59375zm-390.625-253.300781c1.894532-11.917969 8.316406-22.382813 18.085938-29.46875 9.765625-7.085937 21.707031-9.945313 33.625-8.046875l60.121094 9.5625c11.230468 1.785156 15.222656 10.902344 14.195312 19.144531-.925781 7.425781-6.191406 15.71875-17.988281 14.648438-.941407-.082031-1.898438-.203125-2.84375-.351563l-10.417969-1.65625c-.027344-.003906-.050781-.011718-.074219-.015625l-69.304687-11.023437c-2-.316406-4.042969.171875-5.683594 1.359375-1.636719 1.191406-2.738281 2.980469-3.054688 4.980469l-2.503906 15.746093c-1.003906 6.320313-4.410156 11.867188-9.589844 15.625-3.046874 2.210938-6.488281 3.644531-10.09375 4.246094zm-7.554687 50.296875c7.546875-.359375 14.832031-2.894531 21.085937-7.433594 8.480469-6.152344 14.058594-15.238281 15.703125-25.585937l1.304688-8.207031 58.894531 9.371093c9.367188 11.902344 13.363281 27.105469 10.972656 42.136719-4.707031 29.59375-32.617187 49.84375-62.210937 45.136719-27.300781-4.34375-46.628907-28.457031-45.75-55.417969zm26.933593 68.128906c24.425782 0 44.371094 19.5 45.128907 43.75-3.175781-3.042968-6.03125-6.339844-8.480469-9.863281-2.40625-3.464844-7.164062-4.320313-10.628906-1.914063-3.460938 2.410157-4.316406 7.167969-1.910156 10.628907 3.761718 5.410156 8.25 10.402343 13.34375 14.839843 17.632812 15.363282 41.632812 23.628907 71.5625 24.703126v35.570312c-40.75-1.335938-73.675782-13.460938-97.953126-36.105469-6.074218-5.667969-11.527343-11.960937-16.207031-18.710937-2.402343-3.464844-7.15625-4.328125-10.625-1.925782-3.464843 2.402344-4.328125 7.15625-1.925781 10.625 5.300781 7.640626 11.46875 14.769532 18.34375 21.179688 9.832031 9.171875 20.882812 16.792969 33.097656 22.851562h-78.921875v-70.453124c0-24.910157 20.265625-45.175782 45.175781-45.175782zm31.9375 155.199219c-3.015624 3.019531-6.4375 5.59375-10.175781 7.652344-2.433593 1.34375-3.949219 3.902343-3.949219 6.683593v137.523438c0 9.824219-7.992187 17.8125-17.8125 17.8125-9.820312 0-17.8125-7.988281-17.8125-17.8125v-137.511719c0-2.78125-1.515624-5.34375-3.949218-6.6875-12.175782-6.707031-20.433594-18.550781-22.738282-31.964843h89.015626c-1.550782 9.164062-5.875 17.605468-12.578126 24.304687zm92.34375-37.496094v-35.609375c3.828126-.15625 7.738282-.417968 11.730469-.78125 4.804688-.433594 9.476563 1.042969 13.15625 4.167969 3.675781 3.125 5.886719 7.503906 6.230469 12.328125.679688 9.613281-6.792969 18.152344-16.660156 19.03125-4.855469.429688-9.6875.710938-14.457032.863281zm231.695313 48.96875c0 4-1.558594 7.761719-4.386719 10.59375l-30.234375 30.230469c-2.828125 2.832031-6.589843 4.390625-10.59375 4.390625-4.003906 0-7.761719-1.558594-10.59375-4.390625-5.839843-5.839844-5.839843-15.34375 0-21.183594l23.609375-23.609375c1.433594-1.433593 2.238282-3.375 2.238282-5.398437v-38.953125h29.960937zm-66.601563 8.84375c-5.714843 5.714844-8.863281 13.308594-8.863281 21.390625 0 8.078125 3.148438 15.675782 8.863281 21.386719 5.710938 5.714844 13.308594 8.863281 21.390626 8.863281 8.078124 0 15.675781-3.148437 21.386718-8.863281l30.234375-30.230469c1.300781-1.300781 2.460938-2.699218 3.484375-4.179687 10.972656 12.546875 17.121094 28.667969 17.121094 45.585937 0 38.230469-31.101562 69.332032-69.332031 69.332032s-69.332031-31.101563-69.332031-69.332032c0-34.976562 26.039062-63.96875 59.746093-68.652344zm-54.308593-278.570312h75.132812c24.90625 0 45.171875 20.261719 45.171875 45.171875v35.175781c-9.476562-3.191406-16.316406-12.164063-16.316406-22.703125v-15.945312c0-4.214844-3.417969-7.632813-7.636719-7.632813h-55.351562c-20.382813 0-37.402344-14.707031-41-34.066406zm11.632812 89.226562c0-15.867187 6.742188-30.589843 18.601563-40.925781 3.488281.667969 7.085937 1.035156 10.765625 1.035156h47.71875v8.308594c0 18.859375 13.382812 34.648438 31.148437 38.382812-3.351562 26.730469-26.175781 47.484376-53.785156 47.539063-.039062 0-.074219-.003906-.109375-.003906s-.074219.003906-.109375.003906c-29.914062-.058594-54.230469-24.410156-54.230469-54.339844zm54.230469 69.609375c.039062 0 .074219.003906.109375.003906.039063 0 .074219-.003906.109375-.003906 27.652344.054688 50.5625 20.644532 54.289062 47.304688h-29.421874v-8.265625c0-4.21875-3.417969-7.636719-7.632813-7.636719-4.21875 0-7.636719 3.417969-7.636719 7.636719v23.945312c-24.289062.628907-46.652344 9.125-64.644531 23.019531v-31.066406c0-14.675781 5.714844-28.472656 16.089844-38.847656 10.351562-10.351562 24.105469-16.0625 38.738281-16.089844zm-138.140625 214.207032c-3.71875-1.472657-6.644531-4.304688-8.230469-7.976563-1.589844-3.671875-1.652344-7.746094-.179687-11.46875l29.632812-74.835937c1.910157-4.8125 6.265625-8.355469 11.363281-9.242188l31.289063-5.449219c-8.53125 10.820313-15.085937 23.265625-19.128906 36.785157-.121094.234374-25.296875 63.773437-25.296875 63.773437-2.28125 5.753906-7.75 9.472656-13.933594 9.472656-1.894531 0-3.746094-.355469-5.515625-1.058593zm44.886719 35.644531c0 10.648437-8.664063 19.3125-19.316406 19.3125-10.648438 0-19.3125-8.664063-19.3125-19.3125 0-10.652344 8.664062-19.316407 19.3125-19.316407 10.652343 0 19.316406 8.664063 19.316406 19.316407zm-13.097656-34.585938c.695312-1.226562 1.324218-2.507812 1.855468-3.847656l7.910156-19.976563c1.339844 8.28125 3.601563 16.257813 6.675782 23.824219zm119.082031 53.898438c-52.648438 0-95.476563-42.832031-95.476563-95.476563 0-51.671875 41.257813-93.882812 92.5625-95.425781v10.898437c-45.300781 1.542969-81.6875 38.855469-81.6875 84.527344 0 46.648438 37.949219 84.601563 84.601563 84.601563 46.648437 0 84.597656-37.953125 84.597656-84.601563 0-23.625-9.804687-45.988281-27.03125-61.980468.007813-.273438.019531-.542969.019531-.816407v-13.351562c23.648438 17.90625 37.890625 46.015625 37.890625 76.148437-.003906 52.644532-42.832031 95.476563-95.476562 95.476563zm0 0"/><path d="m350.953125 125.660156c-4.214844 0-7.636719 3.417969-7.636719 7.632813v14.441406c0 4.214844 3.421875 7.632813 7.636719 7.632813s7.632813-3.417969 7.632813-7.632813v-14.441406c0-4.214844-3.417969-7.632813-7.632813-7.632813zm0 0"/><path d="m325.683594 125.660156c-4.214844 0-7.632813 3.417969-7.632813 7.632813v14.441406c0 4.214844 3.417969 7.632813 7.632813 7.632813s7.632812-3.417969 7.632812-7.632813v-14.441406c0-4.214844-3.417968-7.632813-7.632812-7.632813zm0 0"/><path d="m244.566406 483.761719c2.84375 1.875 6.632813 1.652343 9.222656-.570313 2.320313-1.988281 3.226563-5.269531 2.257813-8.167968-.984375-2.960938-3.738281-5.078126-6.867187-5.230469-3.261719-.160157-6.316407 1.84375-7.492188 4.878906-1.265625 3.269531-.058594 7.15625 2.878906 9.089844zm0 0"/></svg>